<?xml version="1.0" encoding="utf-8" standalone="no"?>
<!DOCTYPE svg PUBLIC "-//W3C//DTD SVG 1.1//EN"
  "http://www.w3.org/Graphics/SVG/1.1/DTD/svg11.dtd">
<!-- Created with matplotlib (https://matplotlib.org/) -->
<svg height="576pt" version="1.1" viewBox="0 0 432 576" width="432pt" xmlns="http://www.w3.org/2000/svg" xmlns:xlink="http://www.w3.org/1999/xlink">
 <defs>
  <style type="text/css">
*{stroke-linecap:butt;stroke-linejoin:round;}
  </style>
 </defs>
 <g id="figure_1">
  <g id="patch_1">
   <path d="M 0 576 
L 432 576 
L 432 0 
L 0 0 
z
" style="fill:#ffffff;"/>
  </g>
  <g id="axes_1">
   <g id="patch_2">
    <path d="M 72.84 256.44 
L 374.08 256.44 
L 374.08 53.96 
L 72.84 53.96 
z
" style="fill:#ffffff;"/>
   </g>
   <g id="matplotlib.axis_1">
    <g id="xtick_1">
     <g id="line2d_1">
      <defs>
       <path d="M 0 0 
L 0 3.5 
" id="m0af9b69066" style="stroke:#000000;stroke-width:0.8;"/>
      </defs>
      <g>
       <use style="stroke:#000000;stroke-width:0.8;" x="86.254688" xlink:href="#m0af9b69066" y="256.44"/>
      </g>
     </g>
     <g id="text_1">
      <!-- 0.0 -->
      <defs>
       <path d="M 31.78125 66.40625 
Q 24.171875 66.40625 20.328125 58.90625 
Q 16.5 51.421875 16.5 36.375 
Q 16.5 21.390625 20.328125 13.890625 
Q 24.171875 6.390625 31.78125 6.390625 
Q 39.453125 6.390625 43.28125 13.890625 
Q 47.125 21.390625 47.125 36.375 
Q 47.125 51.421875 43.28125 58.90625 
Q 39.453125 66.40625 31.78125 66.40625 
z
M 31.78125 74.21875 
Q 44.046875 74.21875 50.515625 64.515625 
Q 56.984375 54.828125 56.984375 36.375 
Q 56.984375 17.96875 50.515625 8.265625 
Q 44.046875 -1.421875 31.78125 -1.421875 
Q 19.53125 -1.421875 13.0625 8.265625 
Q 6.59375 17.96875 6.59375 36.375 
Q 6.59375 54.828125 13.0625 64.515625 
Q 19.53125 74.21875 31.78125 74.21875 
z
" id="DejaVuSans-48"/>
       <path d="M 10.6875 12.40625 
L 21 12.40625 
L 21 0 
L 10.6875 0 
z
" id="DejaVuSans-46"/>
      </defs>
      <g transform="translate(78.303126 271.038437)scale(0.1 -0.1)">
       <use xlink:href="#DejaVuSans-48"/>
       <use x="63.623047" xlink:href="#DejaVuSans-46"/>
       <use x="95.410156" xlink:href="#DejaVuSans-48"/>
      </g>
     </g>
    </g>
    <g id="xtick_2">
     <g id="line2d_2">
      <g>
       <use style="stroke:#000000;stroke-width:0.8;" x="143.017188" xlink:href="#m0af9b69066" y="256.44"/>
      </g>
     </g>
     <g id="text_2">
      <!-- 0.5 -->
      <defs>
       <path d="M 10.796875 72.90625 
L 49.515625 72.90625 
L 49.515625 64.59375 
L 19.828125 64.59375 
L 19.828125 46.734375 
Q 21.96875 47.46875 24.109375 47.828125 
Q 26.265625 48.1875 28.421875 48.1875 
Q 40.625 48.1875 47.75 41.5 
Q 54.890625 34.8125 54.890625 23.390625 
Q 54.890625 11.625 47.5625 5.09375 
Q 40.234375 -1.421875 26.90625 -1.421875 
Q 22.3125 -1.421875 17.546875 -0.640625 
Q 12.796875 0.140625 7.71875 1.703125 
L 7.71875 11.625 
Q 12.109375 9.234375 16.796875 8.0625 
Q 21.484375 6.890625 26.703125 6.890625 
Q 35.15625 6.890625 40.078125 11.328125 
Q 45.015625 15.765625 45.015625 23.390625 
Q 45.015625 31 40.078125 35.4375 
Q 35.15625 39.890625 26.703125 39.890625 
Q 22.75 39.890625 18.8125 39.015625 
Q 14.890625 38.140625 10.796875 36.28125 
z
" id="DejaVuSans-53"/>
      </defs>
      <g transform="translate(135.065625 271.038437)scale(0.1 -0.1)">
       <use xlink:href="#DejaVuSans-48"/>
       <use x="63.623047" xlink:href="#DejaVuSans-46"/>
       <use x="95.410156" xlink:href="#DejaVuSans-53"/>
      </g>
     </g>
    </g>
    <g id="xtick_3">
     <g id="line2d_3">
      <g>
       <use style="stroke:#000000;stroke-width:0.8;" x="199.779687" xlink:href="#m0af9b69066" y="256.44"/>
      </g>
     </g>
     <g id="text_3">
      <!-- 1.0 -->
      <defs>
       <path d="M 12.40625 8.296875 
L 28.515625 8.296875 
L 28.515625 63.921875 
L 10.984375 60.40625 
L 10.984375 69.390625 
L 28.421875 72.90625 
L 38.28125 72.90625 
L 38.28125 8.296875 
L 54.390625 8.296875 
L 54.390625 0 
L 12.40625 0 
z
" id="DejaVuSans-49"/>
      </defs>
      <g transform="translate(191.828125 271.038437)scale(0.1 -0.1)">
       <use xlink:href="#DejaVuSans-49"/>
       <use x="63.623047" xlink:href="#DejaVuSans-46"/>
       <use x="95.410156" xlink:href="#DejaVuSans-48"/>
      </g>
     </g>
    </g>
    <g id="xtick_4">
     <g id="line2d_4">
      <g>
       <use style="stroke:#000000;stroke-width:0.8;" x="256.542187" xlink:href="#m0af9b69066" y="256.44"/>
      </g>
     </g>
     <g id="text_4">
      <!-- 1.5 -->
      <g transform="translate(248.590625 271.038437)scale(0.1 -0.1)">
       <use xlink:href="#DejaVuSans-49"/>
       <use x="63.623047" xlink:href="#DejaVuSans-46"/>
       <use x="95.410156" xlink:href="#DejaVuSans-53"/>
      </g>
     </g>
    </g>
    <g id="xtick_5">
     <g id="line2d_5">
      <g>
       <use style="stroke:#000000;stroke-width:0.8;" x="313.304687" xlink:href="#m0af9b69066" y="256.44"/>
      </g>
     </g>
     <g id="text_5">
      <!-- 2.0 -->
      <defs>
       <path d="M 19.1875 8.296875 
L 53.609375 8.296875 
L 53.609375 0 
L 7.328125 0 
L 7.328125 8.296875 
Q 12.9375 14.109375 22.625 23.890625 
Q 32.328125 33.6875 34.8125 36.53125 
Q 39.546875 41.84375 41.421875 45.53125 
Q 43.3125 49.21875 43.3125 52.78125 
Q 43.3125 58.59375 39.234375 62.25 
Q 35.15625 65.921875 28.609375 65.921875 
Q 23.96875 65.921875 18.8125 64.3125 
Q 13.671875 62.703125 7.8125 59.421875 
L 7.8125 69.390625 
Q 13.765625 71.78125 18.9375 73 
Q 24.125 74.21875 28.421875 74.21875 
Q 39.75 74.21875 46.484375 68.546875 
Q 53.21875 62.890625 53.21875 53.421875 
Q 53.21875 48.921875 51.53125 44.890625 
Q 49.859375 40.875 45.40625 35.40625 
Q 44.1875 33.984375 37.640625 27.21875 
Q 31.109375 20.453125 19.1875 8.296875 
z
" id="DejaVuSans-50"/>
      </defs>
      <g transform="translate(305.353124 271.038437)scale(0.1 -0.1)">
       <use xlink:href="#DejaVuSans-50"/>
       <use x="63.623047" xlink:href="#DejaVuSans-46"/>
       <use x="95.410156" xlink:href="#DejaVuSans-48"/>
      </g>
     </g>
    </g>
    <g id="xtick_6">
     <g id="line2d_6">
      <g>
       <use style="stroke:#000000;stroke-width:0.8;" x="370.067186" xlink:href="#m0af9b69066" y="256.44"/>
      </g>
     </g>
     <g id="text_6">
      <!-- 2.5 -->
      <g transform="translate(362.115624 271.038437)scale(0.1 -0.1)">
       <use xlink:href="#DejaVuSans-50"/>
       <use x="63.623047" xlink:href="#DejaVuSans-46"/>
       <use x="95.410156" xlink:href="#DejaVuSans-53"/>
      </g>
     </g>
    </g>
    <g id="text_7">
     <!-- Prey -->
     <defs>
      <path d="M 19.671875 64.796875 
L 19.671875 37.40625 
L 32.078125 37.40625 
Q 38.96875 37.40625 42.71875 40.96875 
Q 46.484375 44.53125 46.484375 51.125 
Q 46.484375 57.671875 42.71875 61.234375 
Q 38.96875 64.796875 32.078125 64.796875 
z
M 9.8125 72.90625 
L 32.078125 72.90625 
Q 44.34375 72.90625 50.609375 67.359375 
Q 56.890625 61.8125 56.890625 51.125 
Q 56.890625 40.328125 50.609375 34.8125 
Q 44.34375 29.296875 32.078125 29.296875 
L 19.671875 29.296875 
L 19.671875 0 
L 9.8125 0 
z
" id="DejaVuSans-80"/>
      <path d="M 41.109375 46.296875 
Q 39.59375 47.171875 37.8125 47.578125 
Q 36.03125 48 33.890625 48 
Q 26.265625 48 22.1875 43.046875 
Q 18.109375 38.09375 18.109375 28.8125 
L 18.109375 0 
L 9.078125 0 
L 9.078125 54.6875 
L 18.109375 54.6875 
L 18.109375 46.1875 
Q 20.953125 51.171875 25.484375 53.578125 
Q 30.03125 56 36.53125 56 
Q 37.453125 56 38.578125 55.875 
Q 39.703125 55.765625 41.0625 55.515625 
z
" id="DejaVuSans-114"/>
      <path d="M 56.203125 29.59375 
L 56.203125 25.203125 
L 14.890625 25.203125 
Q 15.484375 15.921875 20.484375 11.0625 
Q 25.484375 6.203125 34.421875 6.203125 
Q 39.59375 6.203125 44.453125 7.46875 
Q 49.3125 8.734375 54.109375 11.28125 
L 54.109375 2.78125 
Q 49.265625 0.734375 44.1875 -0.34375 
Q 39.109375 -1.421875 33.890625 -1.421875 
Q 20.796875 -1.421875 13.15625 6.1875 
Q 5.515625 13.8125 5.515625 26.8125 
Q 5.515625 40.234375 12.765625 48.109375 
Q 20.015625 56 32.328125 56 
Q 43.359375 56 49.78125 48.890625 
Q 56.203125 41.796875 56.203125 29.59375 
z
M 47.21875 32.234375 
Q 47.125 39.59375 43.09375 43.984375 
Q 39.0625 48.390625 32.421875 48.390625 
Q 24.90625 48.390625 20.390625 44.140625 
Q 15.875 39.890625 15.1875 32.171875 
z
" id="DejaVuSans-101"/>
      <path d="M 32.171875 -5.078125 
Q 28.375 -14.84375 24.75 -17.8125 
Q 21.140625 -20.796875 15.09375 -20.796875 
L 7.90625 -20.796875 
L 7.90625 -13.28125 
L 13.1875 -13.28125 
Q 16.890625 -13.28125 18.9375 -11.515625 
Q 21 -9.765625 23.484375 -3.21875 
L 25.09375 0.875 
L 2.984375 54.6875 
L 12.5 54.6875 
L 29.59375 11.921875 
L 46.6875 54.6875 
L 56.203125 54.6875 
z
" id="DejaVuSans-121"/>
     </defs>
     <g transform="translate(212.356094 284.716563)scale(0.1 -0.1)">
      <use xlink:href="#DejaVuSans-80"/>
      <use x="60.287109" xlink:href="#DejaVuSans-114"/>
      <use x="101.369141" xlink:href="#DejaVuSans-101"/>
      <use x="162.892578" xlink:href="#DejaVuSans-121"/>
     </g>
    </g>
   </g>
   <g id="matplotlib.axis_2">
    <g id="ytick_1">
     <g id="line2d_7">
      <defs>
       <path d="M 0 0 
L -3.5 0 
" id="me5683b2bd7" style="stroke:#000000;stroke-width:0.8;"/>
      </defs>
      <g>
       <use style="stroke:#000000;stroke-width:0.8;" x="72.84" xlink:href="#me5683b2bd7" y="250.178876"/>
      </g>
     </g>
     <g id="text_8">
      <!-- 0 -->
      <g transform="translate(59.4775 253.978095)scale(0.1 -0.1)">
       <use xlink:href="#DejaVuSans-48"/>
      </g>
     </g>
    </g>
    <g id="ytick_2">
     <g id="line2d_8">
      <g>
       <use style="stroke:#000000;stroke-width:0.8;" x="72.84" xlink:href="#me5683b2bd7" y="225.785997"/>
      </g>
     </g>
     <g id="text_9">
      <!-- 1 -->
      <g transform="translate(59.4775 229.585216)scale(0.1 -0.1)">
       <use xlink:href="#DejaVuSans-49"/>
      </g>
     </g>
    </g>
    <g id="ytick_3">
     <g id="line2d_9">
      <g>
       <use style="stroke:#000000;stroke-width:0.8;" x="72.84" xlink:href="#me5683b2bd7" y="201.393118"/>
      </g>
     </g>
     <g id="text_10">
      <!-- 2 -->
      <g transform="translate(59.4775 205.192337)scale(0.1 -0.1)">
       <use xlink:href="#DejaVuSans-50"/>
      </g>
     </g>
    </g>
    <g id="ytick_4">
     <g id="line2d_10">
      <g>
       <use style="stroke:#000000;stroke-width:0.8;" x="72.84" xlink:href="#me5683b2bd7" y="177.00024"/>
      </g>
     </g>
     <g id="text_11">
      <!-- 3 -->
      <defs>
       <path d="M 40.578125 39.3125 
Q 47.65625 37.796875 51.625 33 
Q 55.609375 28.21875 55.609375 21.1875 
Q 55.609375 10.40625 48.1875 4.484375 
Q 40.765625 -1.421875 27.09375 -1.421875 
Q 22.515625 -1.421875 17.65625 -0.515625 
Q 12.796875 0.390625 7.625 2.203125 
L 7.625 11.71875 
Q 11.71875 9.328125 16.59375 8.109375 
Q 21.484375 6.890625 26.8125 6.890625 
Q 36.078125 6.890625 40.9375 10.546875 
Q 45.796875 14.203125 45.796875 21.1875 
Q 45.796875 27.640625 41.28125 31.265625 
Q 36.765625 34.90625 28.71875 34.90625 
L 20.21875 34.90625 
L 20.21875 43.015625 
L 29.109375 43.015625 
Q 36.375 43.015625 40.234375 45.921875 
Q 44.09375 48.828125 44.09375 54.296875 
Q 44.09375 59.90625 40.109375 62.90625 
Q 36.140625 65.921875 28.71875 65.921875 
Q 24.65625 65.921875 20.015625 65.03125 
Q 15.375 64.15625 9.8125 62.3125 
L 9.8125 71.09375 
Q 15.4375 72.65625 20.34375 73.4375 
Q 25.25 74.21875 29.59375 74.21875 
Q 40.828125 74.21875 47.359375 69.109375 
Q 53.90625 64.015625 53.90625 55.328125 
Q 53.90625 49.265625 50.4375 45.09375 
Q 46.96875 40.921875 40.578125 39.3125 
z
" id="DejaVuSans-51"/>
      </defs>
      <g transform="translate(59.4775 180.799458)scale(0.1 -0.1)">
       <use xlink:href="#DejaVuSans-51"/>
      </g>
     </g>
    </g>
    <g id="ytick_5">
     <g id="line2d_11">
      <g>
       <use style="stroke:#000000;stroke-width:0.8;" x="72.84" xlink:href="#me5683b2bd7" y="152.607361"/>
      </g>
     </g>
     <g id="text_12">
      <!-- 4 -->
      <defs>
       <path d="M 37.796875 64.3125 
L 12.890625 25.390625 
L 37.796875 25.390625 
z
M 35.203125 72.90625 
L 47.609375 72.90625 
L 47.609375 25.390625 
L 58.015625 25.390625 
L 58.015625 17.1875 
L 47.609375 17.1875 
L 47.609375 0 
L 37.796875 0 
L 37.796875 17.1875 
L 4.890625 17.1875 
L 4.890625 26.703125 
z
" id="DejaVuSans-52"/>
      </defs>
      <g transform="translate(59.4775 156.40658)scale(0.1 -0.1)">
       <use xlink:href="#DejaVuSans-52"/>
      </g>
     </g>
    </g>
    <g id="ytick_6">
     <g id="line2d_12">
      <g>
       <use style="stroke:#000000;stroke-width:0.8;" x="72.84" xlink:href="#me5683b2bd7" y="128.214482"/>
      </g>
     </g>
     <g id="text_13">
      <!-- 5 -->
      <g transform="translate(59.4775 132.013701)scale(0.1 -0.1)">
       <use xlink:href="#DejaVuSans-53"/>
      </g>
     </g>
    </g>
    <g id="ytick_7">
     <g id="line2d_13">
      <g>
       <use style="stroke:#000000;stroke-width:0.8;" x="72.84" xlink:href="#me5683b2bd7" y="103.821604"/>
      </g>
     </g>
     <g id="text_14">
      <!-- 6 -->
      <defs>
       <path d="M 33.015625 40.375 
Q 26.375 40.375 22.484375 35.828125 
Q 18.609375 31.296875 18.609375 23.390625 
Q 18.609375 15.53125 22.484375 10.953125 
Q 26.375 6.390625 33.015625 6.390625 
Q 39.65625 6.390625 43.53125 10.953125 
Q 47.40625 15.53125 47.40625 23.390625 
Q 47.40625 31.296875 43.53125 35.828125 
Q 39.65625 40.375 33.015625 40.375 
z
M 52.59375 71.296875 
L 52.59375 62.3125 
Q 48.875 64.0625 45.09375 64.984375 
Q 41.3125 65.921875 37.59375 65.921875 
Q 27.828125 65.921875 22.671875 59.328125 
Q 17.53125 52.734375 16.796875 39.40625 
Q 19.671875 43.65625 24.015625 45.921875 
Q 28.375 48.1875 33.59375 48.1875 
Q 44.578125 48.1875 50.953125 41.515625 
Q 57.328125 34.859375 57.328125 23.390625 
Q 57.328125 12.15625 50.6875 5.359375 
Q 44.046875 -1.421875 33.015625 -1.421875 
Q 20.359375 -1.421875 13.671875 8.265625 
Q 6.984375 17.96875 6.984375 36.375 
Q 6.984375 53.65625 15.1875 63.9375 
Q 23.390625 74.21875 37.203125 74.21875 
Q 40.921875 74.21875 44.703125 73.484375 
Q 48.484375 72.75 52.59375 71.296875 
z
" id="DejaVuSans-54"/>
      </defs>
      <g transform="translate(59.4775 107.620822)scale(0.1 -0.1)">
       <use xlink:href="#DejaVuSans-54"/>
      </g>
     </g>
    </g>
    <g id="ytick_8">
     <g id="line2d_14">
      <g>
       <use style="stroke:#000000;stroke-width:0.8;" x="72.84" xlink:href="#me5683b2bd7" y="79.428725"/>
      </g>
     </g>
     <g id="text_15">
      <!-- 7 -->
      <defs>
       <path d="M 8.203125 72.90625 
L 55.078125 72.90625 
L 55.078125 68.703125 
L 28.609375 0 
L 18.3125 0 
L 43.21875 64.59375 
L 8.203125 64.59375 
z
" id="DejaVuSans-55"/>
      </defs>
      <g transform="translate(59.4775 83.227944)scale(0.1 -0.1)">
       <use xlink:href="#DejaVuSans-55"/>
      </g>
     </g>
    </g>
    <g id="ytick_9">
     <g id="line2d_15">
      <g>
       <use style="stroke:#000000;stroke-width:0.8;" x="72.84" xlink:href="#me5683b2bd7" y="55.035846"/>
      </g>
     </g>
     <g id="text_16">
      <!-- 8 -->
      <defs>
       <path d="M 31.78125 34.625 
Q 24.75 34.625 20.71875 30.859375 
Q 16.703125 27.09375 16.703125 20.515625 
Q 16.703125 13.921875 20.71875 10.15625 
Q 24.75 6.390625 31.78125 6.390625 
Q 38.8125 6.390625 42.859375 10.171875 
Q 46.921875 13.96875 46.921875 20.515625 
Q 46.921875 27.09375 42.890625 30.859375 
Q 38.875 34.625 31.78125 34.625 
z
M 21.921875 38.8125 
Q 15.578125 40.375 12.03125 44.71875 
Q 8.5 49.078125 8.5 55.328125 
Q 8.5 64.0625 14.71875 69.140625 
Q 20.953125 74.21875 31.78125 74.21875 
Q 42.671875 74.21875 48.875 69.140625 
Q 55.078125 64.0625 55.078125 55.328125 
Q 55.078125 49.078125 51.53125 44.71875 
Q 48 40.375 41.703125 38.8125 
Q 48.828125 37.15625 52.796875 32.3125 
Q 56.78125 27.484375 56.78125 20.515625 
Q 56.78125 9.90625 50.3125 4.234375 
Q 43.84375 -1.421875 31.78125 -1.421875 
Q 19.734375 -1.421875 13.25 4.234375 
Q 6.78125 9.90625 6.78125 20.515625 
Q 6.78125 27.484375 10.78125 32.3125 
Q 14.796875 37.15625 21.921875 38.8125 
z
M 18.3125 54.390625 
Q 18.3125 48.734375 21.84375 45.5625 
Q 25.390625 42.390625 31.78125 42.390625 
Q 38.140625 42.390625 41.71875 45.5625 
Q 45.3125 48.734375 45.3125 54.390625 
Q 45.3125 60.0625 41.71875 63.234375 
Q 38.140625 66.40625 31.78125 66.40625 
Q 25.390625 66.40625 21.84375 63.234375 
Q 18.3125 60.0625 18.3125 54.390625 
z
" id="DejaVuSans-56"/>
      </defs>
      <g transform="translate(59.4775 58.835065)scale(0.1 -0.1)">
       <use xlink:href="#DejaVuSans-56"/>
      </g>
     </g>
    </g>
    <g id="text_17">
     <!-- Predator -->
     <defs>
      <path d="M 45.40625 46.390625 
L 45.40625 75.984375 
L 54.390625 75.984375 
L 54.390625 0 
L 45.40625 0 
L 45.40625 8.203125 
Q 42.578125 3.328125 38.25 0.953125 
Q 33.9375 -1.421875 27.875 -1.421875 
Q 17.96875 -1.421875 11.734375 6.484375 
Q 5.515625 14.40625 5.515625 27.296875 
Q 5.515625 40.1875 11.734375 48.09375 
Q 17.96875 56 27.875 56 
Q 33.9375 56 38.25 53.625 
Q 42.578125 51.265625 45.40625 46.390625 
z
M 14.796875 27.296875 
Q 14.796875 17.390625 18.875 11.75 
Q 22.953125 6.109375 30.078125 6.109375 
Q 37.203125 6.109375 41.296875 11.75 
Q 45.40625 17.390625 45.40625 27.296875 
Q 45.40625 37.203125 41.296875 42.84375 
Q 37.203125 48.484375 30.078125 48.484375 
Q 22.953125 48.484375 18.875 42.84375 
Q 14.796875 37.203125 14.796875 27.296875 
z
" id="DejaVuSans-100"/>
      <path d="M 34.28125 27.484375 
Q 23.390625 27.484375 19.1875 25 
Q 14.984375 22.515625 14.984375 16.5 
Q 14.984375 11.71875 18.140625 8.90625 
Q 21.296875 6.109375 26.703125 6.109375 
Q 34.1875 6.109375 38.703125 11.40625 
Q 43.21875 16.703125 43.21875 25.484375 
L 43.21875 27.484375 
z
M 52.203125 31.203125 
L 52.203125 0 
L 43.21875 0 
L 43.21875 8.296875 
Q 40.140625 3.328125 35.546875 0.953125 
Q 30.953125 -1.421875 24.3125 -1.421875 
Q 15.921875 -1.421875 10.953125 3.296875 
Q 6 8.015625 6 15.921875 
Q 6 25.140625 12.171875 29.828125 
Q 18.359375 34.515625 30.609375 34.515625 
L 43.21875 34.515625 
L 43.21875 35.40625 
Q 43.21875 41.609375 39.140625 45 
Q 35.0625 48.390625 27.6875 48.390625 
Q 23 48.390625 18.546875 47.265625 
Q 14.109375 46.140625 10.015625 43.890625 
L 10.015625 52.203125 
Q 14.9375 54.109375 19.578125 55.046875 
Q 24.21875 56 28.609375 56 
Q 40.484375 56 46.34375 49.84375 
Q 52.203125 43.703125 52.203125 31.203125 
z
" id="DejaVuSans-97"/>
      <path d="M 18.3125 70.21875 
L 18.3125 54.6875 
L 36.8125 54.6875 
L 36.8125 47.703125 
L 18.3125 47.703125 
L 18.3125 18.015625 
Q 18.3125 11.328125 20.140625 9.421875 
Q 21.96875 7.515625 27.59375 7.515625 
L 36.8125 7.515625 
L 36.8125 0 
L 27.59375 0 
Q 17.1875 0 13.234375 3.875 
Q 9.28125 7.765625 9.28125 18.015625 
L 9.28125 47.703125 
L 2.6875 47.703125 
L 2.6875 54.6875 
L 9.28125 54.6875 
L 9.28125 70.21875 
z
" id="DejaVuSans-116"/>
      <path d="M 30.609375 48.390625 
Q 23.390625 48.390625 19.1875 42.75 
Q 14.984375 37.109375 14.984375 27.296875 
Q 14.984375 17.484375 19.15625 11.84375 
Q 23.34375 6.203125 30.609375 6.203125 
Q 37.796875 6.203125 41.984375 11.859375 
Q 46.1875 17.53125 46.1875 27.296875 
Q 46.1875 37.015625 41.984375 42.703125 
Q 37.796875 48.390625 30.609375 48.390625 
z
M 30.609375 56 
Q 42.328125 56 49.015625 48.375 
Q 55.71875 40.765625 55.71875 27.296875 
Q 55.71875 13.875 49.015625 6.21875 
Q 42.328125 -1.421875 30.609375 -1.421875 
Q 18.84375 -1.421875 12.171875 6.21875 
Q 5.515625 13.875 5.515625 27.296875 
Q 5.515625 40.765625 12.171875 48.375 
Q 18.84375 56 30.609375 56 
z
" id="DejaVuSans-111"/>
     </defs>
     <g transform="translate(53.397812 176.657813)rotate(-90)scale(0.1 -0.1)">
      <use xlink:href="#DejaVuSans-80"/>
      <use x="60.287109" xlink:href="#DejaVuSans-114"/>
      <use x="101.369141" xlink:href="#DejaVuSans-101"/>
      <use x="162.892578" xlink:href="#DejaVuSans-100"/>
      <use x="226.369141" xlink:href="#DejaVuSans-97"/>
      <use x="287.648438" xlink:href="#DejaVuSans-116"/>
      <use x="326.857422" xlink:href="#DejaVuSans-111"/>
      <use x="388.039062" xlink:href="#DejaVuSans-114"/>
     </g>
    </g>
   </g>
   <g id="line2d_16">
    <path clip-path="url(#p5d4f286ceb)" d="M 313.304687 225.785997 
L 336.009686 218.468133 
L 353.492536 207.686481 
L 360.387273 191.930301 
L 349.752749 169.624205 
L 315.435163 140.285266 
L 258.021987 106.904718 
L 191.486104 77.87637 
L 138.200707 63.163636 
L 108.763955 64.750521 
L 96.154846 75.940163 
L 91.063179 90.325073 
L 88.87373 104.956292 
L 87.838297 118.808488 
L 87.302149 131.579019 
L 87.002359 143.220147 
L 86.824052 153.775135 
L 86.712905 163.31881 
L 86.641383 171.934699 
L 86.594683 179.705813 
L 86.564455 186.710907 
L 86.54581 193.023068 
L 86.53582 198.709335 
L 86.532727 203.830797 
L 86.535506 208.442903 
L 86.543622 212.595852 
L 86.556891 216.335024 
L 86.575403 219.701391 
L 86.599474 222.731919 
L 86.629636 225.459943 
L 86.66663 227.915508 
L 86.71142 230.125688 
L 86.765219 232.114871 
L 86.829518 233.905024 
L 86.906134 235.515929 
L 86.997263 236.965396 
L 87.105554 238.269458 
L 87.234185 239.442547 
L 87.386972 240.497653 
L 87.56849 241.446464 
L 87.784217 242.299493 
L 88.040716 243.0662 
L 88.345844 243.755087 
L 88.709005 244.373801 
L 89.14146 244.929208 
L 89.656687 245.427477 
L 90.27082 245.874139 
L 91.003172 246.274156 
L 91.876856 246.631963 
L 92.919539 246.951523 
L 94.164329 247.236364 
" style="fill:none;stroke:#1f77b4;stroke-linecap:square;stroke-width:0.2;"/>
    <defs>
     <path d="M 0 0.175 
C 0.046411 0.175 0.090926 0.156561 0.123744 0.123744 
C 0.156561 0.090926 0.175 0.046411 0.175 0 
C 0.175 -0.046411 0.156561 -0.090926 0.123744 -0.123744 
C 0.090926 -0.156561 0.046411 -0.175 0 -0.175 
C -0.046411 -0.175 -0.090926 -0.156561 -0.123744 -0.123744 
C -0.156561 -0.090926 -0.175 -0.046411 -0.175 0 
C -0.175 0.046411 -0.156561 0.090926 -0.123744 0.123744 
C -0.090926 0.156561 -0.046411 0.175 0 0.175 
z
" id="m577f7029d4" style="stroke:#1f77b4;"/>
    </defs>
    <g clip-path="url(#p5d4f286ceb)">
     <use style="fill:#1f77b4;stroke:#1f77b4;" x="313.304687" xlink:href="#m577f7029d4" y="225.785997"/>
     <use style="fill:#1f77b4;stroke:#1f77b4;" x="336.009686" xlink:href="#m577f7029d4" y="218.468133"/>
     <use style="fill:#1f77b4;stroke:#1f77b4;" x="353.492536" xlink:href="#m577f7029d4" y="207.686481"/>
     <use style="fill:#1f77b4;stroke:#1f77b4;" x="360.387273" xlink:href="#m577f7029d4" y="191.930301"/>
     <use style="fill:#1f77b4;stroke:#1f77b4;" x="349.752749" xlink:href="#m577f7029d4" y="169.624205"/>
     <use style="fill:#1f77b4;stroke:#1f77b4;" x="315.435163" xlink:href="#m577f7029d4" y="140.285266"/>
     <use style="fill:#1f77b4;stroke:#1f77b4;" x="258.021987" xlink:href="#m577f7029d4" y="106.904718"/>
     <use style="fill:#1f77b4;stroke:#1f77b4;" x="191.486104" xlink:href="#m577f7029d4" y="77.87637"/>
     <use style="fill:#1f77b4;stroke:#1f77b4;" x="138.200707" xlink:href="#m577f7029d4" y="63.163636"/>
     <use style="fill:#1f77b4;stroke:#1f77b4;" x="108.763955" xlink:href="#m577f7029d4" y="64.750521"/>
     <use style="fill:#1f77b4;stroke:#1f77b4;" x="96.154846" xlink:href="#m577f7029d4" y="75.940163"/>
     <use style="fill:#1f77b4;stroke:#1f77b4;" x="91.063179" xlink:href="#m577f7029d4" y="90.325073"/>
     <use style="fill:#1f77b4;stroke:#1f77b4;" x="88.87373" xlink:href="#m577f7029d4" y="104.956292"/>
     <use style="fill:#1f77b4;stroke:#1f77b4;" x="87.838297" xlink:href="#m577f7029d4" y="118.808488"/>
     <use style="fill:#1f77b4;stroke:#1f77b4;" x="87.302149" xlink:href="#m577f7029d4" y="131.579019"/>
     <use style="fill:#1f77b4;stroke:#1f77b4;" x="87.002359" xlink:href="#m577f7029d4" y="143.220147"/>
     <use style="fill:#1f77b4;stroke:#1f77b4;" x="86.824052" xlink:href="#m577f7029d4" y="153.775135"/>
     <use style="fill:#1f77b4;stroke:#1f77b4;" x="86.712905" xlink:href="#m577f7029d4" y="163.31881"/>
     <use style="fill:#1f77b4;stroke:#1f77b4;" x="86.641383" xlink:href="#m577f7029d4" y="171.934699"/>
     <use style="fill:#1f77b4;stroke:#1f77b4;" x="86.594683" xlink:href="#m577f7029d4" y="179.705813"/>
     <use style="fill:#1f77b4;stroke:#1f77b4;" x="86.564455" xlink:href="#m577f7029d4" y="186.710907"/>
     <use style="fill:#1f77b4;stroke:#1f77b4;" x="86.54581" xlink:href="#m577f7029d4" y="193.023068"/>
     <use style="fill:#1f77b4;stroke:#1f77b4;" x="86.53582" xlink:href="#m577f7029d4" y="198.709335"/>
     <use style="fill:#1f77b4;stroke:#1f77b4;" x="86.532727" xlink:href="#m577f7029d4" y="203.830797"/>
     <use style="fill:#1f77b4;stroke:#1f77b4;" x="86.535506" xlink:href="#m577f7029d4" y="208.442903"/>
     <use style="fill:#1f77b4;stroke:#1f77b4;" x="86.543622" xlink:href="#m577f7029d4" y="212.595852"/>
     <use style="fill:#1f77b4;stroke:#1f77b4;" x="86.556891" xlink:href="#m577f7029d4" y="216.335024"/>
     <use style="fill:#1f77b4;stroke:#1f77b4;" x="86.575403" xlink:href="#m577f7029d4" y="219.701391"/>
     <use style="fill:#1f77b4;stroke:#1f77b4;" x="86.599474" xlink:href="#m577f7029d4" y="222.731919"/>
     <use style="fill:#1f77b4;stroke:#1f77b4;" x="86.629636" xlink:href="#m577f7029d4" y="225.459943"/>
     <use style="fill:#1f77b4;stroke:#1f77b4;" x="86.66663" xlink:href="#m577f7029d4" y="227.915508"/>
     <use style="fill:#1f77b4;stroke:#1f77b4;" x="86.71142" xlink:href="#m577f7029d4" y="230.125688"/>
     <use style="fill:#1f77b4;stroke:#1f77b4;" x="86.765219" xlink:href="#m577f7029d4" y="232.114871"/>
     <use style="fill:#1f77b4;stroke:#1f77b4;" x="86.829518" xlink:href="#m577f7029d4" y="233.905024"/>
     <use style="fill:#1f77b4;stroke:#1f77b4;" x="86.906134" xlink:href="#m577f7029d4" y="235.515929"/>
     <use style="fill:#1f77b4;stroke:#1f77b4;" x="86.997263" xlink:href="#m577f7029d4" y="236.965396"/>
     <use style="fill:#1f77b4;stroke:#1f77b4;" x="87.105554" xlink:href="#m577f7029d4" y="238.269458"/>
     <use style="fill:#1f77b4;stroke:#1f77b4;" x="87.234185" xlink:href="#m577f7029d4" y="239.442547"/>
     <use style="fill:#1f77b4;stroke:#1f77b4;" x="87.386972" xlink:href="#m577f7029d4" y="240.497653"/>
     <use style="fill:#1f77b4;stroke:#1f77b4;" x="87.56849" xlink:href="#m577f7029d4" y="241.446464"/>
     <use style="fill:#1f77b4;stroke:#1f77b4;" x="87.784217" xlink:href="#m577f7029d4" y="242.299493"/>
     <use style="fill:#1f77b4;stroke:#1f77b4;" x="88.040716" xlink:href="#m577f7029d4" y="243.0662"/>
     <use style="fill:#1f77b4;stroke:#1f77b4;" x="88.345844" xlink:href="#m577f7029d4" y="243.755087"/>
     <use style="fill:#1f77b4;stroke:#1f77b4;" x="88.709005" xlink:href="#m577f7029d4" y="244.373801"/>
     <use style="fill:#1f77b4;stroke:#1f77b4;" x="89.14146" xlink:href="#m577f7029d4" y="244.929208"/>
     <use style="fill:#1f77b4;stroke:#1f77b4;" x="89.656687" xlink:href="#m577f7029d4" y="245.427477"/>
     <use style="fill:#1f77b4;stroke:#1f77b4;" x="90.27082" xlink:href="#m577f7029d4" y="245.874139"/>
     <use style="fill:#1f77b4;stroke:#1f77b4;" x="91.003172" xlink:href="#m577f7029d4" y="246.274156"/>
     <use style="fill:#1f77b4;stroke:#1f77b4;" x="91.876856" xlink:href="#m577f7029d4" y="246.631963"/>
     <use style="fill:#1f77b4;stroke:#1f77b4;" x="92.919539" xlink:href="#m577f7029d4" y="246.951523"/>
     <use style="fill:#1f77b4;stroke:#1f77b4;" x="94.164329" xlink:href="#m577f7029d4" y="247.236364"/>
    </g>
   </g>
   <g id="patch_3">
    <path d="M 72.84 256.44 
L 72.84 53.96 
" style="fill:none;stroke:#000000;stroke-linecap:square;stroke-linejoin:miter;stroke-width:0.8;"/>
   </g>
   <g id="patch_4">
    <path d="M 374.08 256.44 
L 374.08 53.96 
" style="fill:none;stroke:#000000;stroke-linecap:square;stroke-linejoin:miter;stroke-width:0.8;"/>
   </g>
   <g id="patch_5">
    <path d="M 72.84 256.44 
L 374.08 256.44 
" style="fill:none;stroke:#000000;stroke-linecap:square;stroke-linejoin:miter;stroke-width:0.8;"/>
   </g>
   <g id="patch_6">
    <path d="M 72.84 53.96 
L 374.08 53.96 
" style="fill:none;stroke:#000000;stroke-linecap:square;stroke-linejoin:miter;stroke-width:0.8;"/>
   </g>
   <g id="text_18">
    <!-- $t = 0.00$ -->
    <defs>
     <path d="M 42.28125 54.6875 
L 40.921875 47.703125 
L 23 47.703125 
L 17.1875 18.015625 
Q 16.890625 16.359375 16.75 15.234375 
Q 16.609375 14.109375 16.609375 13.484375 
Q 16.609375 10.359375 18.484375 8.9375 
Q 20.359375 7.515625 24.515625 7.515625 
L 33.59375 7.515625 
L 32.078125 0 
L 23.484375 0 
Q 15.484375 0 11.546875 3.125 
Q 7.625 6.25 7.625 12.59375 
Q 7.625 13.71875 7.765625 15.0625 
Q 7.90625 16.40625 8.203125 18.015625 
L 14.015625 47.703125 
L 6.390625 47.703125 
L 7.8125 54.6875 
L 15.28125 54.6875 
L 18.3125 70.21875 
L 27.296875 70.21875 
L 24.3125 54.6875 
z
" id="DejaVuSans-Oblique-116"/>
     <path d="M 10.59375 45.40625 
L 73.1875 45.40625 
L 73.1875 37.203125 
L 10.59375 37.203125 
z
M 10.59375 25.484375 
L 73.1875 25.484375 
L 73.1875 17.1875 
L 10.59375 17.1875 
z
" id="DejaVuSans-61"/>
    </defs>
    <g transform="translate(313.304687 225.785997)scale(0.1 -0.1)">
     <use transform="translate(0 0.78125)" xlink:href="#DejaVuSans-Oblique-116"/>
     <use transform="translate(58.691406 0.78125)" xlink:href="#DejaVuSans-61"/>
     <use transform="translate(161.962891 0.78125)" xlink:href="#DejaVuSans-48"/>
     <use transform="translate(225.585938 0.78125)" xlink:href="#DejaVuSans-46"/>
     <use transform="translate(257.373047 0.78125)" xlink:href="#DejaVuSans-48"/>
     <use transform="translate(320.996094 0.78125)" xlink:href="#DejaVuSans-48"/>
    </g>
   </g>
   <g id="text_19">
    <!-- $t = 1.00$ -->
    <g transform="translate(96.154846 75.940163)scale(0.1 -0.1)">
     <use transform="translate(0 0.78125)" xlink:href="#DejaVuSans-Oblique-116"/>
     <use transform="translate(58.691406 0.78125)" xlink:href="#DejaVuSans-61"/>
     <use transform="translate(161.962891 0.78125)" xlink:href="#DejaVuSans-49"/>
     <use transform="translate(225.585938 0.78125)" xlink:href="#DejaVuSans-46"/>
     <use transform="translate(257.373047 0.78125)" xlink:href="#DejaVuSans-48"/>
     <use transform="translate(320.996094 0.78125)" xlink:href="#DejaVuSans-48"/>
    </g>
   </g>
   <g id="text_20">
    <!-- $t = 2.00$ -->
    <g transform="translate(86.564455 186.710907)scale(0.1 -0.1)">
     <use transform="translate(0 0.78125)" xlink:href="#DejaVuSans-Oblique-116"/>
     <use transform="translate(58.691406 0.78125)" xlink:href="#DejaVuSans-61"/>
     <use transform="translate(161.962891 0.78125)" xlink:href="#DejaVuSans-50"/>
     <use transform="translate(225.585938 0.78125)" xlink:href="#DejaVuSans-46"/>
     <use transform="translate(257.373047 0.78125)" xlink:href="#DejaVuSans-48"/>
     <use transform="translate(320.996094 0.78125)" xlink:href="#DejaVuSans-48"/>
    </g>
   </g>
   <g id="text_21">
    <!-- $t = 3.00$ -->
    <g transform="translate(86.66663 227.915508)scale(0.1 -0.1)">
     <use transform="translate(0 0.78125)" xlink:href="#DejaVuSans-Oblique-116"/>
     <use transform="translate(58.691406 0.78125)" xlink:href="#DejaVuSans-61"/>
     <use transform="translate(161.962891 0.78125)" xlink:href="#DejaVuSans-51"/>
     <use transform="translate(225.585938 0.78125)" xlink:href="#DejaVuSans-46"/>
     <use transform="translate(257.373047 0.78125)" xlink:href="#DejaVuSans-48"/>
     <use transform="translate(320.996094 0.78125)" xlink:href="#DejaVuSans-48"/>
    </g>
   </g>
   <g id="text_22">
    <!-- $t = 4.00$ -->
    <g transform="translate(87.784217 242.299493)scale(0.1 -0.1)">
     <use transform="translate(0 0.78125)" xlink:href="#DejaVuSans-Oblique-116"/>
     <use transform="translate(58.691406 0.78125)" xlink:href="#DejaVuSans-61"/>
     <use transform="translate(161.962891 0.78125)" xlink:href="#DejaVuSans-52"/>
     <use transform="translate(225.585938 0.78125)" xlink:href="#DejaVuSans-46"/>
     <use transform="translate(257.373047 0.78125)" xlink:href="#DejaVuSans-48"/>
     <use transform="translate(320.996094 0.78125)" xlink:href="#DejaVuSans-48"/>
    </g>
   </g>
   <g id="text_23">
    <!-- $t = 5.00$ -->
    <g transform="translate(94.164329 247.236364)scale(0.1 -0.1)">
     <use transform="translate(0 0.78125)" xlink:href="#DejaVuSans-Oblique-116"/>
     <use transform="translate(58.691406 0.78125)" xlink:href="#DejaVuSans-61"/>
     <use transform="translate(161.962891 0.78125)" xlink:href="#DejaVuSans-53"/>
     <use transform="translate(225.585938 0.78125)" xlink:href="#DejaVuSans-46"/>
     <use transform="translate(257.373047 0.78125)" xlink:href="#DejaVuSans-48"/>
     <use transform="translate(320.996094 0.78125)" xlink:href="#DejaVuSans-48"/>
    </g>
   </g>
   <g id="text_24">
    <!-- Lotka-Volterra Phase Portrait -->
    <defs>
     <path d="M 9.8125 72.90625 
L 19.671875 72.90625 
L 19.671875 8.296875 
L 55.171875 8.296875 
L 55.171875 0 
L 9.8125 0 
z
" id="DejaVuSans-76"/>
     <path d="M 9.078125 75.984375 
L 18.109375 75.984375 
L 18.109375 31.109375 
L 44.921875 54.6875 
L 56.390625 54.6875 
L 27.390625 29.109375 
L 57.625 0 
L 45.90625 0 
L 18.109375 26.703125 
L 18.109375 0 
L 9.078125 0 
z
" id="DejaVuSans-107"/>
     <path d="M 4.890625 31.390625 
L 31.203125 31.390625 
L 31.203125 23.390625 
L 4.890625 23.390625 
z
" id="DejaVuSans-45"/>
     <path d="M 28.609375 0 
L 0.78125 72.90625 
L 11.078125 72.90625 
L 34.1875 11.53125 
L 57.328125 72.90625 
L 67.578125 72.90625 
L 39.796875 0 
z
" id="DejaVuSans-86"/>
     <path d="M 9.421875 75.984375 
L 18.40625 75.984375 
L 18.40625 0 
L 9.421875 0 
z
" id="DejaVuSans-108"/>
     <path id="DejaVuSans-32"/>
     <path d="M 54.890625 33.015625 
L 54.890625 0 
L 45.90625 0 
L 45.90625 32.71875 
Q 45.90625 40.484375 42.875 44.328125 
Q 39.84375 48.1875 33.796875 48.1875 
Q 26.515625 48.1875 22.3125 43.546875 
Q 18.109375 38.921875 18.109375 30.90625 
L 18.109375 0 
L 9.078125 0 
L 9.078125 75.984375 
L 18.109375 75.984375 
L 18.109375 46.1875 
Q 21.34375 51.125 25.703125 53.5625 
Q 30.078125 56 35.796875 56 
Q 45.21875 56 50.046875 50.171875 
Q 54.890625 44.34375 54.890625 33.015625 
z
" id="DejaVuSans-104"/>
     <path d="M 44.28125 53.078125 
L 44.28125 44.578125 
Q 40.484375 46.53125 36.375 47.5 
Q 32.28125 48.484375 27.875 48.484375 
Q 21.1875 48.484375 17.84375 46.4375 
Q 14.5 44.390625 14.5 40.28125 
Q 14.5 37.15625 16.890625 35.375 
Q 19.28125 33.59375 26.515625 31.984375 
L 29.59375 31.296875 
Q 39.15625 29.25 43.1875 25.515625 
Q 47.21875 21.78125 47.21875 15.09375 
Q 47.21875 7.46875 41.1875 3.015625 
Q 35.15625 -1.421875 24.609375 -1.421875 
Q 20.21875 -1.421875 15.453125 -0.5625 
Q 10.6875 0.296875 5.421875 2 
L 5.421875 11.28125 
Q 10.40625 8.6875 15.234375 7.390625 
Q 20.0625 6.109375 24.8125 6.109375 
Q 31.15625 6.109375 34.5625 8.28125 
Q 37.984375 10.453125 37.984375 14.40625 
Q 37.984375 18.0625 35.515625 20.015625 
Q 33.0625 21.96875 24.703125 23.78125 
L 21.578125 24.515625 
Q 13.234375 26.265625 9.515625 29.90625 
Q 5.8125 33.546875 5.8125 39.890625 
Q 5.8125 47.609375 11.28125 51.796875 
Q 16.75 56 26.8125 56 
Q 31.78125 56 36.171875 55.265625 
Q 40.578125 54.546875 44.28125 53.078125 
z
" id="DejaVuSans-115"/>
     <path d="M 9.421875 54.6875 
L 18.40625 54.6875 
L 18.40625 0 
L 9.421875 0 
z
M 9.421875 75.984375 
L 18.40625 75.984375 
L 18.40625 64.59375 
L 9.421875 64.59375 
z
" id="DejaVuSans-105"/>
    </defs>
    <g transform="translate(136.699062 47.96)scale(0.12 -0.12)">
     <use xlink:href="#DejaVuSans-76"/>
     <use x="55.697266" xlink:href="#DejaVuSans-111"/>
     <use x="116.878906" xlink:href="#DejaVuSans-116"/>
     <use x="156.087891" xlink:href="#DejaVuSans-107"/>
     <use x="213.982422" xlink:href="#DejaVuSans-97"/>
     <use x="275.261719" xlink:href="#DejaVuSans-45"/>
     <use x="311.267578" xlink:href="#DejaVuSans-86"/>
     <use x="379.566406" xlink:href="#DejaVuSans-111"/>
     <use x="440.748047" xlink:href="#DejaVuSans-108"/>
     <use x="468.53125" xlink:href="#DejaVuSans-116"/>
     <use x="507.740234" xlink:href="#DejaVuSans-101"/>
     <use x="569.263672" xlink:href="#DejaVuSans-114"/>
     <use x="610.361328" xlink:href="#DejaVuSans-114"/>
     <use x="651.474609" xlink:href="#DejaVuSans-97"/>
     <use x="712.753906" xlink:href="#DejaVuSans-32"/>
     <use x="744.541016" xlink:href="#DejaVuSans-80"/>
     <use x="804.84375" xlink:href="#DejaVuSans-104"/>
     <use x="868.222656" xlink:href="#DejaVuSans-97"/>
     <use x="929.501953" xlink:href="#DejaVuSans-115"/>
     <use x="981.601562" xlink:href="#DejaVuSans-101"/>
     <use x="1043.125" xlink:href="#DejaVuSans-32"/>
     <use x="1074.912109" xlink:href="#DejaVuSans-80"/>
     <use x="1135.167969" xlink:href="#DejaVuSans-111"/>
     <use x="1196.349609" xlink:href="#DejaVuSans-114"/>
     <use x="1237.462891" xlink:href="#DejaVuSans-116"/>
     <use x="1276.671875" xlink:href="#DejaVuSans-114"/>
     <use x="1317.785156" xlink:href="#DejaVuSans-97"/>
     <use x="1379.064453" xlink:href="#DejaVuSans-105"/>
     <use x="1406.847656" xlink:href="#DejaVuSans-116"/>
    </g>
   </g>
  </g>
  <g id="axes_2">
   <g id="patch_7">
    <path d="M 72.84 526 
L 374.08 526 
L 374.08 323.52 
L 72.84 323.52 
z
" style="fill:#ffffff;"/>
   </g>
   <g id="matplotlib.axis_3">
    <g id="xtick_7">
     <g id="line2d_17">
      <g>
       <use style="stroke:#000000;stroke-width:0.8;" x="86.532727" xlink:href="#m0af9b69066" y="526"/>
      </g>
     </g>
     <g id="text_25">
      <!-- 0 -->
      <g transform="translate(83.351477 540.598438)scale(0.1 -0.1)">
       <use xlink:href="#DejaVuSans-48"/>
      </g>
     </g>
    </g>
    <g id="xtick_8">
     <g id="line2d_18">
      <g>
       <use style="stroke:#000000;stroke-width:0.8;" x="141.303636" xlink:href="#m0af9b69066" y="526"/>
      </g>
     </g>
     <g id="text_26">
      <!-- 1 -->
      <g transform="translate(138.122386 540.598438)scale(0.1 -0.1)">
       <use xlink:href="#DejaVuSans-49"/>
      </g>
     </g>
    </g>
    <g id="xtick_9">
     <g id="line2d_19">
      <g>
       <use style="stroke:#000000;stroke-width:0.8;" x="196.074545" xlink:href="#m0af9b69066" y="526"/>
      </g>
     </g>
     <g id="text_27">
      <!-- 2 -->
      <g transform="translate(192.893295 540.598438)scale(0.1 -0.1)">
       <use xlink:href="#DejaVuSans-50"/>
      </g>
     </g>
    </g>
    <g id="xtick_10">
     <g id="line2d_20">
      <g>
       <use style="stroke:#000000;stroke-width:0.8;" x="250.845455" xlink:href="#m0af9b69066" y="526"/>
      </g>
     </g>
     <g id="text_28">
      <!-- 3 -->
      <g transform="translate(247.664205 540.598438)scale(0.1 -0.1)">
       <use xlink:href="#DejaVuSans-51"/>
      </g>
     </g>
    </g>
    <g id="xtick_11">
     <g id="line2d_21">
      <g>
       <use style="stroke:#000000;stroke-width:0.8;" x="305.616364" xlink:href="#m0af9b69066" y="526"/>
      </g>
     </g>
     <g id="text_29">
      <!-- 4 -->
      <g transform="translate(302.435114 540.598438)scale(0.1 -0.1)">
       <use xlink:href="#DejaVuSans-52"/>
      </g>
     </g>
    </g>
    <g id="xtick_12">
     <g id="line2d_22">
      <g>
       <use style="stroke:#000000;stroke-width:0.8;" x="360.387273" xlink:href="#m0af9b69066" y="526"/>
      </g>
     </g>
     <g id="text_30">
      <!-- 5 -->
      <g transform="translate(357.206023 540.598438)scale(0.1 -0.1)">
       <use xlink:href="#DejaVuSans-53"/>
      </g>
     </g>
    </g>
    <g id="text_31">
     <!-- Time -->
     <defs>
      <path d="M -0.296875 72.90625 
L 61.375 72.90625 
L 61.375 64.59375 
L 35.5 64.59375 
L 35.5 0 
L 25.59375 0 
L 25.59375 64.59375 
L -0.296875 64.59375 
z
" id="DejaVuSans-84"/>
      <path d="M 52 44.1875 
Q 55.375 50.25 60.0625 53.125 
Q 64.75 56 71.09375 56 
Q 79.640625 56 84.28125 50.015625 
Q 88.921875 44.046875 88.921875 33.015625 
L 88.921875 0 
L 79.890625 0 
L 79.890625 32.71875 
Q 79.890625 40.578125 77.09375 44.375 
Q 74.3125 48.1875 68.609375 48.1875 
Q 61.625 48.1875 57.5625 43.546875 
Q 53.515625 38.921875 53.515625 30.90625 
L 53.515625 0 
L 44.484375 0 
L 44.484375 32.71875 
Q 44.484375 40.625 41.703125 44.40625 
Q 38.921875 48.1875 33.109375 48.1875 
Q 26.21875 48.1875 22.15625 43.53125 
Q 18.109375 38.875 18.109375 30.90625 
L 18.109375 0 
L 9.078125 0 
L 9.078125 54.6875 
L 18.109375 54.6875 
L 18.109375 46.1875 
Q 21.1875 51.21875 25.484375 53.609375 
Q 29.78125 56 35.6875 56 
Q 41.65625 56 45.828125 52.96875 
Q 50 49.953125 52 44.1875 
z
" id="DejaVuSans-109"/>
     </defs>
     <g transform="translate(211.0725 554.276562)scale(0.1 -0.1)">
      <use xlink:href="#DejaVuSans-84"/>
      <use x="61.037109" xlink:href="#DejaVuSans-105"/>
      <use x="88.820312" xlink:href="#DejaVuSans-109"/>
      <use x="186.232422" xlink:href="#DejaVuSans-101"/>
     </g>
    </g>
   </g>
   <g id="matplotlib.axis_4">
    <g id="ytick_10">
     <g id="line2d_23">
      <g>
       <use style="stroke:#000000;stroke-width:0.8;" x="72.84" xlink:href="#me5683b2bd7" y="516.855184"/>
      </g>
     </g>
     <g id="text_32">
      <!-- 0 -->
      <g transform="translate(59.4775 520.654403)scale(0.1 -0.1)">
       <use xlink:href="#DejaVuSans-48"/>
      </g>
     </g>
    </g>
    <g id="ytick_11">
     <g id="line2d_24">
      <g>
       <use style="stroke:#000000;stroke-width:0.8;" x="72.84" xlink:href="#me5683b2bd7" y="492.838433"/>
      </g>
     </g>
     <g id="text_33">
      <!-- 1 -->
      <g transform="translate(59.4775 496.637651)scale(0.1 -0.1)">
       <use xlink:href="#DejaVuSans-49"/>
      </g>
     </g>
    </g>
    <g id="ytick_12">
     <g id="line2d_25">
      <g>
       <use style="stroke:#000000;stroke-width:0.8;" x="72.84" xlink:href="#me5683b2bd7" y="468.821681"/>
      </g>
     </g>
     <g id="text_34">
      <!-- 2 -->
      <g transform="translate(59.4775 472.6209)scale(0.1 -0.1)">
       <use xlink:href="#DejaVuSans-50"/>
      </g>
     </g>
    </g>
    <g id="ytick_13">
     <g id="line2d_26">
      <g>
       <use style="stroke:#000000;stroke-width:0.8;" x="72.84" xlink:href="#me5683b2bd7" y="444.80493"/>
      </g>
     </g>
     <g id="text_35">
      <!-- 3 -->
      <g transform="translate(59.4775 448.604149)scale(0.1 -0.1)">
       <use xlink:href="#DejaVuSans-51"/>
      </g>
     </g>
    </g>
    <g id="ytick_14">
     <g id="line2d_27">
      <g>
       <use style="stroke:#000000;stroke-width:0.8;" x="72.84" xlink:href="#me5683b2bd7" y="420.788179"/>
      </g>
     </g>
     <g id="text_36">
      <!-- 4 -->
      <g transform="translate(59.4775 424.587397)scale(0.1 -0.1)">
       <use xlink:href="#DejaVuSans-52"/>
      </g>
     </g>
    </g>
    <g id="ytick_15">
     <g id="line2d_28">
      <g>
       <use style="stroke:#000000;stroke-width:0.8;" x="72.84" xlink:href="#me5683b2bd7" y="396.771427"/>
      </g>
     </g>
     <g id="text_37">
      <!-- 5 -->
      <g transform="translate(59.4775 400.570646)scale(0.1 -0.1)">
       <use xlink:href="#DejaVuSans-53"/>
      </g>
     </g>
    </g>
    <g id="ytick_16">
     <g id="line2d_29">
      <g>
       <use style="stroke:#000000;stroke-width:0.8;" x="72.84" xlink:href="#me5683b2bd7" y="372.754676"/>
      </g>
     </g>
     <g id="text_38">
      <!-- 6 -->
      <g transform="translate(59.4775 376.553895)scale(0.1 -0.1)">
       <use xlink:href="#DejaVuSans-54"/>
      </g>
     </g>
    </g>
    <g id="ytick_17">
     <g id="line2d_30">
      <g>
       <use style="stroke:#000000;stroke-width:0.8;" x="72.84" xlink:href="#me5683b2bd7" y="348.737924"/>
      </g>
     </g>
     <g id="text_39">
      <!-- 7 -->
      <g transform="translate(59.4775 352.537143)scale(0.1 -0.1)">
       <use xlink:href="#DejaVuSans-55"/>
      </g>
     </g>
    </g>
    <g id="ytick_18">
     <g id="line2d_31">
      <g>
       <use style="stroke:#000000;stroke-width:0.8;" x="72.84" xlink:href="#me5683b2bd7" y="324.721173"/>
      </g>
     </g>
     <g id="text_40">
      <!-- 8 -->
      <g transform="translate(59.4775 328.520392)scale(0.1 -0.1)">
       <use xlink:href="#DejaVuSans-56"/>
      </g>
     </g>
    </g>
    <g id="text_41">
     <!-- Population -->
     <defs>
      <path d="M 18.109375 8.203125 
L 18.109375 -20.796875 
L 9.078125 -20.796875 
L 9.078125 54.6875 
L 18.109375 54.6875 
L 18.109375 46.390625 
Q 20.953125 51.265625 25.265625 53.625 
Q 29.59375 56 35.59375 56 
Q 45.5625 56 51.78125 48.09375 
Q 58.015625 40.1875 58.015625 27.296875 
Q 58.015625 14.40625 51.78125 6.484375 
Q 45.5625 -1.421875 35.59375 -1.421875 
Q 29.59375 -1.421875 25.265625 0.953125 
Q 20.953125 3.328125 18.109375 8.203125 
z
M 48.6875 27.296875 
Q 48.6875 37.203125 44.609375 42.84375 
Q 40.53125 48.484375 33.40625 48.484375 
Q 26.265625 48.484375 22.1875 42.84375 
Q 18.109375 37.203125 18.109375 27.296875 
Q 18.109375 17.390625 22.1875 11.75 
Q 26.265625 6.109375 33.40625 6.109375 
Q 40.53125 6.109375 44.609375 11.75 
Q 48.6875 17.390625 48.6875 27.296875 
z
" id="DejaVuSans-112"/>
      <path d="M 8.5 21.578125 
L 8.5 54.6875 
L 17.484375 54.6875 
L 17.484375 21.921875 
Q 17.484375 14.15625 20.5 10.265625 
Q 23.53125 6.390625 29.59375 6.390625 
Q 36.859375 6.390625 41.078125 11.03125 
Q 45.3125 15.671875 45.3125 23.6875 
L 45.3125 54.6875 
L 54.296875 54.6875 
L 54.296875 0 
L 45.3125 0 
L 45.3125 8.40625 
Q 42.046875 3.421875 37.71875 1 
Q 33.40625 -1.421875 27.6875 -1.421875 
Q 18.265625 -1.421875 13.375 4.4375 
Q 8.5 10.296875 8.5 21.578125 
z
M 31.109375 56 
z
" id="DejaVuSans-117"/>
      <path d="M 54.890625 33.015625 
L 54.890625 0 
L 45.90625 0 
L 45.90625 32.71875 
Q 45.90625 40.484375 42.875 44.328125 
Q 39.84375 48.1875 33.796875 48.1875 
Q 26.515625 48.1875 22.3125 43.546875 
Q 18.109375 38.921875 18.109375 30.90625 
L 18.109375 0 
L 9.078125 0 
L 9.078125 54.6875 
L 18.109375 54.6875 
L 18.109375 46.1875 
Q 21.34375 51.125 25.703125 53.5625 
Q 30.078125 56 35.796875 56 
Q 45.21875 56 50.046875 50.171875 
Q 54.890625 44.34375 54.890625 33.015625 
z
" id="DejaVuSans-110"/>
     </defs>
     <g transform="translate(53.397812 451.205312)rotate(-90)scale(0.1 -0.1)">
      <use xlink:href="#DejaVuSans-80"/>
      <use x="60.255859" xlink:href="#DejaVuSans-111"/>
      <use x="121.4375" xlink:href="#DejaVuSans-112"/>
      <use x="184.914062" xlink:href="#DejaVuSans-117"/>
      <use x="248.292969" xlink:href="#DejaVuSans-108"/>
      <use x="276.076172" xlink:href="#DejaVuSans-97"/>
      <use x="337.355469" xlink:href="#DejaVuSans-116"/>
      <use x="376.564453" xlink:href="#DejaVuSans-105"/>
      <use x="404.347656" xlink:href="#DejaVuSans-111"/>
      <use x="465.529297" xlink:href="#DejaVuSans-110"/>
     </g>
    </g>
   </g>
   <g id="line2d_32">
    <path clip-path="url(#p23e5c58521)" d="M 86.532727 468.821681 
L 92.009818 464.018331 
L 97.486909 460.319751 
L 102.964 458.861137 
L 108.441091 461.110921 
L 113.918182 468.370969 
L 119.395273 480.516998 
L 124.872364 494.59298 
L 130.349455 505.865758 
L 135.826545 512.093242 
L 141.303636 514.760759 
L 146.780727 515.837925 
L 152.257818 516.301113 
L 157.734909 516.520164 
L 163.212 516.633589 
L 168.689091 516.697011 
L 174.166182 516.734733 
L 179.643273 516.758246 
L 185.120364 516.773377 
L 190.597455 516.783257 
L 196.074545 516.789652 
L 201.551636 516.793596 
L 207.028727 516.795709 
L 212.505818 516.796364 
L 217.982909 516.795776 
L 223.46 516.794059 
L 228.937091 516.791252 
L 234.414182 516.787335 
L 239.891273 516.782243 
L 245.368364 516.775862 
L 250.845455 516.768036 
L 256.322545 516.75856 
L 261.799636 516.747179 
L 267.276727 516.733576 
L 272.753818 516.717368 
L 278.230909 516.698089 
L 283.708 516.67518 
L 289.185091 516.647967 
L 294.662182 516.615644 
L 300.139273 516.577243 
L 305.616364 516.531605 
L 311.093455 516.477341 
L 316.570545 516.41279 
L 322.047636 516.335962 
L 327.524727 516.244474 
L 333.001818 516.135475 
L 338.478909 516.005552 
L 343.956 515.85062 
L 349.433091 515.665788 
L 354.910182 515.445203 
L 360.387273 515.181862 
" style="fill:none;stroke:#008000;stroke-linecap:square;stroke-width:0.2;"/>
    <defs>
     <path d="M 0 0.175 
C 0.046411 0.175 0.090926 0.156561 0.123744 0.123744 
C 0.156561 0.090926 0.175 0.046411 0.175 0 
C 0.175 -0.046411 0.156561 -0.090926 0.123744 -0.123744 
C 0.090926 -0.156561 0.046411 -0.175 0 -0.175 
C -0.046411 -0.175 -0.090926 -0.156561 -0.123744 -0.123744 
C -0.156561 -0.090926 -0.175 -0.046411 -0.175 0 
C -0.175 0.046411 -0.156561 0.090926 -0.123744 0.123744 
C -0.090926 0.156561 -0.046411 0.175 0 0.175 
z
" id="mb3b0d153f8" style="stroke:#008000;"/>
    </defs>
    <g clip-path="url(#p23e5c58521)">
     <use style="fill:#008000;stroke:#008000;" x="86.532727" xlink:href="#mb3b0d153f8" y="468.821681"/>
     <use style="fill:#008000;stroke:#008000;" x="92.009818" xlink:href="#mb3b0d153f8" y="464.018331"/>
     <use style="fill:#008000;stroke:#008000;" x="97.486909" xlink:href="#mb3b0d153f8" y="460.319751"/>
     <use style="fill:#008000;stroke:#008000;" x="102.964" xlink:href="#mb3b0d153f8" y="458.861137"/>
     <use style="fill:#008000;stroke:#008000;" x="108.441091" xlink:href="#mb3b0d153f8" y="461.110921"/>
     <use style="fill:#008000;stroke:#008000;" x="113.918182" xlink:href="#mb3b0d153f8" y="468.370969"/>
     <use style="fill:#008000;stroke:#008000;" x="119.395273" xlink:href="#mb3b0d153f8" y="480.516998"/>
     <use style="fill:#008000;stroke:#008000;" x="124.872364" xlink:href="#mb3b0d153f8" y="494.59298"/>
     <use style="fill:#008000;stroke:#008000;" x="130.349455" xlink:href="#mb3b0d153f8" y="505.865758"/>
     <use style="fill:#008000;stroke:#008000;" x="135.826545" xlink:href="#mb3b0d153f8" y="512.093242"/>
     <use style="fill:#008000;stroke:#008000;" x="141.303636" xlink:href="#mb3b0d153f8" y="514.760759"/>
     <use style="fill:#008000;stroke:#008000;" x="146.780727" xlink:href="#mb3b0d153f8" y="515.837925"/>
     <use style="fill:#008000;stroke:#008000;" x="152.257818" xlink:href="#mb3b0d153f8" y="516.301113"/>
     <use style="fill:#008000;stroke:#008000;" x="157.734909" xlink:href="#mb3b0d153f8" y="516.520164"/>
     <use style="fill:#008000;stroke:#008000;" x="163.212" xlink:href="#mb3b0d153f8" y="516.633589"/>
     <use style="fill:#008000;stroke:#008000;" x="168.689091" xlink:href="#mb3b0d153f8" y="516.697011"/>
     <use style="fill:#008000;stroke:#008000;" x="174.166182" xlink:href="#mb3b0d153f8" y="516.734733"/>
     <use style="fill:#008000;stroke:#008000;" x="179.643273" xlink:href="#mb3b0d153f8" y="516.758246"/>
     <use style="fill:#008000;stroke:#008000;" x="185.120364" xlink:href="#mb3b0d153f8" y="516.773377"/>
     <use style="fill:#008000;stroke:#008000;" x="190.597455" xlink:href="#mb3b0d153f8" y="516.783257"/>
     <use style="fill:#008000;stroke:#008000;" x="196.074545" xlink:href="#mb3b0d153f8" y="516.789652"/>
     <use style="fill:#008000;stroke:#008000;" x="201.551636" xlink:href="#mb3b0d153f8" y="516.793596"/>
     <use style="fill:#008000;stroke:#008000;" x="207.028727" xlink:href="#mb3b0d153f8" y="516.795709"/>
     <use style="fill:#008000;stroke:#008000;" x="212.505818" xlink:href="#mb3b0d153f8" y="516.796364"/>
     <use style="fill:#008000;stroke:#008000;" x="217.982909" xlink:href="#mb3b0d153f8" y="516.795776"/>
     <use style="fill:#008000;stroke:#008000;" x="223.46" xlink:href="#mb3b0d153f8" y="516.794059"/>
     <use style="fill:#008000;stroke:#008000;" x="228.937091" xlink:href="#mb3b0d153f8" y="516.791252"/>
     <use style="fill:#008000;stroke:#008000;" x="234.414182" xlink:href="#mb3b0d153f8" y="516.787335"/>
     <use style="fill:#008000;stroke:#008000;" x="239.891273" xlink:href="#mb3b0d153f8" y="516.782243"/>
     <use style="fill:#008000;stroke:#008000;" x="245.368364" xlink:href="#mb3b0d153f8" y="516.775862"/>
     <use style="fill:#008000;stroke:#008000;" x="250.845455" xlink:href="#mb3b0d153f8" y="516.768036"/>
     <use style="fill:#008000;stroke:#008000;" x="256.322545" xlink:href="#mb3b0d153f8" y="516.75856"/>
     <use style="fill:#008000;stroke:#008000;" x="261.799636" xlink:href="#mb3b0d153f8" y="516.747179"/>
     <use style="fill:#008000;stroke:#008000;" x="267.276727" xlink:href="#mb3b0d153f8" y="516.733576"/>
     <use style="fill:#008000;stroke:#008000;" x="272.753818" xlink:href="#mb3b0d153f8" y="516.717368"/>
     <use style="fill:#008000;stroke:#008000;" x="278.230909" xlink:href="#mb3b0d153f8" y="516.698089"/>
     <use style="fill:#008000;stroke:#008000;" x="283.708" xlink:href="#mb3b0d153f8" y="516.67518"/>
     <use style="fill:#008000;stroke:#008000;" x="289.185091" xlink:href="#mb3b0d153f8" y="516.647967"/>
     <use style="fill:#008000;stroke:#008000;" x="294.662182" xlink:href="#mb3b0d153f8" y="516.615644"/>
     <use style="fill:#008000;stroke:#008000;" x="300.139273" xlink:href="#mb3b0d153f8" y="516.577243"/>
     <use style="fill:#008000;stroke:#008000;" x="305.616364" xlink:href="#mb3b0d153f8" y="516.531605"/>
     <use style="fill:#008000;stroke:#008000;" x="311.093455" xlink:href="#mb3b0d153f8" y="516.477341"/>
     <use style="fill:#008000;stroke:#008000;" x="316.570545" xlink:href="#mb3b0d153f8" y="516.41279"/>
     <use style="fill:#008000;stroke:#008000;" x="322.047636" xlink:href="#mb3b0d153f8" y="516.335962"/>
     <use style="fill:#008000;stroke:#008000;" x="327.524727" xlink:href="#mb3b0d153f8" y="516.244474"/>
     <use style="fill:#008000;stroke:#008000;" x="333.001818" xlink:href="#mb3b0d153f8" y="516.135475"/>
     <use style="fill:#008000;stroke:#008000;" x="338.478909" xlink:href="#mb3b0d153f8" y="516.005552"/>
     <use style="fill:#008000;stroke:#008000;" x="343.956" xlink:href="#mb3b0d153f8" y="515.85062"/>
     <use style="fill:#008000;stroke:#008000;" x="349.433091" xlink:href="#mb3b0d153f8" y="515.665788"/>
     <use style="fill:#008000;stroke:#008000;" x="354.910182" xlink:href="#mb3b0d153f8" y="515.445203"/>
     <use style="fill:#008000;stroke:#008000;" x="360.387273" xlink:href="#mb3b0d153f8" y="515.181862"/>
    </g>
   </g>
   <g id="line2d_33">
    <path clip-path="url(#p23e5c58521)" d="M 86.532727 492.838433 
L 92.009818 485.633407 
L 97.486909 475.018003 
L 102.964 459.504777 
L 108.441091 437.542631 
L 113.918182 408.656085 
L 119.395273 375.79025 
L 124.872364 347.209507 
L 130.349455 332.723636 
L 135.826545 334.286052 
L 141.303636 345.303155 
L 146.780727 359.466255 
L 152.257818 373.871868 
L 157.734909 387.510469 
L 163.212 400.084084 
L 168.689091 411.545712 
L 174.166182 421.937946 
L 179.643273 431.334462 
L 185.120364 439.817498 
L 190.597455 447.468784 
L 196.074545 454.365863 
L 201.551636 460.580693 
L 207.028727 466.179281 
L 212.505818 471.221772 
L 217.982909 475.762761 
L 223.46 479.851674 
L 228.937091 483.533189 
L 234.414182 486.847648 
L 239.891273 489.831447 
L 245.368364 492.517406 
L 250.845455 494.935108 
L 256.322545 497.111207 
L 261.799636 499.069718 
L 267.276727 500.832268 
L 272.753818 502.418334 
L 278.230909 503.84545 
L 283.708 505.129404 
L 289.185091 506.284405 
L 294.662182 507.323242 
L 300.139273 508.257422 
L 305.616364 509.097298 
L 311.093455 509.852182 
L 316.570545 510.530448 
L 322.047636 511.139621 
L 327.524727 511.686464 
L 333.001818 512.177049 
L 338.478909 512.616825 
L 343.956 513.010673 
L 349.433091 513.362963 
L 354.910182 513.677595 
L 360.387273 513.958044 
" style="fill:none;stroke:#ff0000;stroke-linecap:square;stroke-width:0.2;"/>
    <defs>
     <path d="M 0 0.175 
C 0.046411 0.175 0.090926 0.156561 0.123744 0.123744 
C 0.156561 0.090926 0.175 0.046411 0.175 0 
C 0.175 -0.046411 0.156561 -0.090926 0.123744 -0.123744 
C 0.090926 -0.156561 0.046411 -0.175 0 -0.175 
C -0.046411 -0.175 -0.090926 -0.156561 -0.123744 -0.123744 
C -0.156561 -0.090926 -0.175 -0.046411 -0.175 0 
C -0.175 0.046411 -0.156561 0.090926 -0.123744 0.123744 
C -0.090926 0.156561 -0.046411 0.175 0 0.175 
z
" id="mb6e3ae3395" style="stroke:#ff0000;"/>
    </defs>
    <g clip-path="url(#p23e5c58521)">
     <use style="fill:#ff0000;stroke:#ff0000;" x="86.532727" xlink:href="#mb6e3ae3395" y="492.838433"/>
     <use style="fill:#ff0000;stroke:#ff0000;" x="92.009818" xlink:href="#mb6e3ae3395" y="485.633407"/>
     <use style="fill:#ff0000;stroke:#ff0000;" x="97.486909" xlink:href="#mb6e3ae3395" y="475.018003"/>
     <use style="fill:#ff0000;stroke:#ff0000;" x="102.964" xlink:href="#mb6e3ae3395" y="459.504777"/>
     <use style="fill:#ff0000;stroke:#ff0000;" x="108.441091" xlink:href="#mb6e3ae3395" y="437.542631"/>
     <use style="fill:#ff0000;stroke:#ff0000;" x="113.918182" xlink:href="#mb6e3ae3395" y="408.656085"/>
     <use style="fill:#ff0000;stroke:#ff0000;" x="119.395273" xlink:href="#mb6e3ae3395" y="375.79025"/>
     <use style="fill:#ff0000;stroke:#ff0000;" x="124.872364" xlink:href="#mb6e3ae3395" y="347.209507"/>
     <use style="fill:#ff0000;stroke:#ff0000;" x="130.349455" xlink:href="#mb6e3ae3395" y="332.723636"/>
     <use style="fill:#ff0000;stroke:#ff0000;" x="135.826545" xlink:href="#mb6e3ae3395" y="334.286052"/>
     <use style="fill:#ff0000;stroke:#ff0000;" x="141.303636" xlink:href="#mb6e3ae3395" y="345.303155"/>
     <use style="fill:#ff0000;stroke:#ff0000;" x="146.780727" xlink:href="#mb6e3ae3395" y="359.466255"/>
     <use style="fill:#ff0000;stroke:#ff0000;" x="152.257818" xlink:href="#mb6e3ae3395" y="373.871868"/>
     <use style="fill:#ff0000;stroke:#ff0000;" x="157.734909" xlink:href="#mb6e3ae3395" y="387.510469"/>
     <use style="fill:#ff0000;stroke:#ff0000;" x="163.212" xlink:href="#mb6e3ae3395" y="400.084084"/>
     <use style="fill:#ff0000;stroke:#ff0000;" x="168.689091" xlink:href="#mb6e3ae3395" y="411.545712"/>
     <use style="fill:#ff0000;stroke:#ff0000;" x="174.166182" xlink:href="#mb6e3ae3395" y="421.937946"/>
     <use style="fill:#ff0000;stroke:#ff0000;" x="179.643273" xlink:href="#mb6e3ae3395" y="431.334462"/>
     <use style="fill:#ff0000;stroke:#ff0000;" x="185.120364" xlink:href="#mb6e3ae3395" y="439.817498"/>
     <use style="fill:#ff0000;stroke:#ff0000;" x="190.597455" xlink:href="#mb6e3ae3395" y="447.468784"/>
     <use style="fill:#ff0000;stroke:#ff0000;" x="196.074545" xlink:href="#mb6e3ae3395" y="454.365863"/>
     <use style="fill:#ff0000;stroke:#ff0000;" x="201.551636" xlink:href="#mb6e3ae3395" y="460.580693"/>
     <use style="fill:#ff0000;stroke:#ff0000;" x="207.028727" xlink:href="#mb6e3ae3395" y="466.179281"/>
     <use style="fill:#ff0000;stroke:#ff0000;" x="212.505818" xlink:href="#mb6e3ae3395" y="471.221772"/>
     <use style="fill:#ff0000;stroke:#ff0000;" x="217.982909" xlink:href="#mb6e3ae3395" y="475.762761"/>
     <use style="fill:#ff0000;stroke:#ff0000;" x="223.46" xlink:href="#mb6e3ae3395" y="479.851674"/>
     <use style="fill:#ff0000;stroke:#ff0000;" x="228.937091" xlink:href="#mb6e3ae3395" y="483.533189"/>
     <use style="fill:#ff0000;stroke:#ff0000;" x="234.414182" xlink:href="#mb6e3ae3395" y="486.847648"/>
     <use style="fill:#ff0000;stroke:#ff0000;" x="239.891273" xlink:href="#mb6e3ae3395" y="489.831447"/>
     <use style="fill:#ff0000;stroke:#ff0000;" x="245.368364" xlink:href="#mb6e3ae3395" y="492.517406"/>
     <use style="fill:#ff0000;stroke:#ff0000;" x="250.845455" xlink:href="#mb6e3ae3395" y="494.935108"/>
     <use style="fill:#ff0000;stroke:#ff0000;" x="256.322545" xlink:href="#mb6e3ae3395" y="497.111207"/>
     <use style="fill:#ff0000;stroke:#ff0000;" x="261.799636" xlink:href="#mb6e3ae3395" y="499.069718"/>
     <use style="fill:#ff0000;stroke:#ff0000;" x="267.276727" xlink:href="#mb6e3ae3395" y="500.832268"/>
     <use style="fill:#ff0000;stroke:#ff0000;" x="272.753818" xlink:href="#mb6e3ae3395" y="502.418334"/>
     <use style="fill:#ff0000;stroke:#ff0000;" x="278.230909" xlink:href="#mb6e3ae3395" y="503.84545"/>
     <use style="fill:#ff0000;stroke:#ff0000;" x="283.708" xlink:href="#mb6e3ae3395" y="505.129404"/>
     <use style="fill:#ff0000;stroke:#ff0000;" x="289.185091" xlink:href="#mb6e3ae3395" y="506.284405"/>
     <use style="fill:#ff0000;stroke:#ff0000;" x="294.662182" xlink:href="#mb6e3ae3395" y="507.323242"/>
     <use style="fill:#ff0000;stroke:#ff0000;" x="300.139273" xlink:href="#mb6e3ae3395" y="508.257422"/>
     <use style="fill:#ff0000;stroke:#ff0000;" x="305.616364" xlink:href="#mb6e3ae3395" y="509.097298"/>
     <use style="fill:#ff0000;stroke:#ff0000;" x="311.093455" xlink:href="#mb6e3ae3395" y="509.852182"/>
     <use style="fill:#ff0000;stroke:#ff0000;" x="316.570545" xlink:href="#mb6e3ae3395" y="510.530448"/>
     <use style="fill:#ff0000;stroke:#ff0000;" x="322.047636" xlink:href="#mb6e3ae3395" y="511.139621"/>
     <use style="fill:#ff0000;stroke:#ff0000;" x="327.524727" xlink:href="#mb6e3ae3395" y="511.686464"/>
     <use style="fill:#ff0000;stroke:#ff0000;" x="333.001818" xlink:href="#mb6e3ae3395" y="512.177049"/>
     <use style="fill:#ff0000;stroke:#ff0000;" x="338.478909" xlink:href="#mb6e3ae3395" y="512.616825"/>
     <use style="fill:#ff0000;stroke:#ff0000;" x="343.956" xlink:href="#mb6e3ae3395" y="513.010673"/>
     <use style="fill:#ff0000;stroke:#ff0000;" x="349.433091" xlink:href="#mb6e3ae3395" y="513.362963"/>
     <use style="fill:#ff0000;stroke:#ff0000;" x="354.910182" xlink:href="#mb6e3ae3395" y="513.677595"/>
     <use style="fill:#ff0000;stroke:#ff0000;" x="360.387273" xlink:href="#mb6e3ae3395" y="513.958044"/>
    </g>
   </g>
   <g id="patch_8">
    <path d="M 72.84 526 
L 72.84 323.52 
" style="fill:none;stroke:#000000;stroke-linecap:square;stroke-linejoin:miter;stroke-width:0.8;"/>
   </g>
   <g id="patch_9">
    <path d="M 374.08 526 
L 374.08 323.52 
" style="fill:none;stroke:#000000;stroke-linecap:square;stroke-linejoin:miter;stroke-width:0.8;"/>
   </g>
   <g id="patch_10">
    <path d="M 72.84 526 
L 374.08 526 
" style="fill:none;stroke:#000000;stroke-linecap:square;stroke-linejoin:miter;stroke-width:0.8;"/>
   </g>
   <g id="patch_11">
    <path d="M 72.84 323.52 
L 374.08 323.52 
" style="fill:none;stroke:#000000;stroke-linecap:square;stroke-linejoin:miter;stroke-width:0.8;"/>
   </g>
   <g id="text_42">
    <!-- Prey -->
    <g style="fill:#008000;" transform="translate(64.324915 468.821681)scale(0.1 -0.1)">
     <use xlink:href="#DejaVuSans-80"/>
     <use x="60.287109" xlink:href="#DejaVuSans-114"/>
     <use x="101.369141" xlink:href="#DejaVuSans-101"/>
     <use x="162.892578" xlink:href="#DejaVuSans-121"/>
    </g>
   </g>
   <g id="text_43">
    <!-- Predator -->
    <g style="fill:#ff0000;" transform="translate(43.617102 492.838433)scale(0.1 -0.1)">
     <use xlink:href="#DejaVuSans-80"/>
     <use x="60.287109" xlink:href="#DejaVuSans-114"/>
     <use x="101.369141" xlink:href="#DejaVuSans-101"/>
     <use x="162.892578" xlink:href="#DejaVuSans-100"/>
     <use x="226.369141" xlink:href="#DejaVuSans-97"/>
     <use x="287.648438" xlink:href="#DejaVuSans-116"/>
     <use x="326.857422" xlink:href="#DejaVuSans-111"/>
     <use x="388.039062" xlink:href="#DejaVuSans-114"/>
    </g>
   </g>
  </g>
  <g id="text_44">
   <!-- $\frac{dx}{dt}=\alpha x-\beta xy$ -->
   <defs>
    <path d="M 41.796875 8.203125 
Q 38.1875 3.46875 33.25 1.015625 
Q 28.328125 -1.421875 22.3125 -1.421875 
Q 14.109375 -1.421875 9.34375 4.171875 
Q 4.59375 9.765625 4.59375 19.484375 
Q 4.59375 27.59375 7.46875 34.9375 
Q 10.359375 42.28125 15.828125 48.09375 
Q 19.4375 51.953125 23.96875 53.96875 
Q 28.515625 56 33.5 56 
Q 38.765625 56 42.796875 53.453125 
Q 46.828125 50.921875 49.03125 46.1875 
L 54.890625 75.984375 
L 63.921875 75.984375 
L 49.125 0 
L 40.09375 0 
z
M 13.921875 21.09375 
Q 13.921875 14.015625 17.109375 10.0625 
Q 20.3125 6.109375 25.984375 6.109375 
Q 30.171875 6.109375 33.765625 8.125 
Q 37.359375 10.15625 40.09375 14.109375 
Q 42.96875 18.21875 44.625 23.578125 
Q 46.296875 28.953125 46.296875 34.1875 
Q 46.296875 40.96875 43.09375 44.765625 
Q 39.890625 48.578125 34.28125 48.578125 
Q 30.03125 48.578125 26.359375 46.578125 
Q 22.703125 44.578125 20.125 40.828125 
Q 17.28125 36.765625 15.59375 31.390625 
Q 13.921875 26.03125 13.921875 21.09375 
z
" id="DejaVuSans-Oblique-100"/>
    <path d="M 60.015625 54.6875 
L 34.90625 27.875 
L 50.296875 0 
L 39.984375 0 
L 28.421875 21.6875 
L 8.296875 0 
L -2.59375 0 
L 24.3125 28.8125 
L 10.015625 54.6875 
L 20.3125 54.6875 
L 30.8125 34.90625 
L 49.125 54.6875 
z
" id="DejaVuSans-Oblique-120"/>
    <path d="M 40.921875 25.4375 
L 40.96875 36.71875 
Q 41.015625 48.25 32.328125 48.296875 
Q 25.828125 48.34375 21.78125 42.921875 
Q 16.703125 36.234375 14.984375 27.296875 
Q 12.890625 16.546875 15.53125 11.421875 
Q 18.265625 6.203125 24.171875 6.203125 
Q 30.71875 6.203125 36.234375 16.609375 
z
M 33.84375 55.90625 
Q 49.078125 56.15625 48.875 40.375 
Q 48.875 40.375 56.5 54.6875 
L 64.5 54.6875 
L 48.734375 25.046875 
L 48.578125 14.359375 
Q 48.578125 11.96875 49.90625 9.96875 
Q 51.421875 7.625 52.984375 7.625 
L 57.328125 7.625 
L 55.859375 0 
L 50.4375 0 
Q 45.84375 0 42.53125 4.109375 
Q 40.96875 6.15625 40.921875 10.453125 
Q 37.75 5.21875 32.28125 0.78125 
Q 29.6875 -1.265625 22.703125 -1.21875 
Q 11.28125 -1.125 7.125 6.203125 
Q 2.875 13.8125 5.515625 27.296875 
Q 8.34375 41.796875 15.765625 48.390625 
Q 24.125 55.765625 33.84375 55.90625 
z
" id="DejaVuSans-Oblique-945"/>
    <path d="M 10.59375 35.5 
L 73.1875 35.5 
L 73.1875 27.203125 
L 10.59375 27.203125 
z
" id="DejaVuSans-8722"/>
    <path d="M 13.625 3.375 
L 8.9375 -20.796875 
L -0.09375 -20.796875 
L 14.5 54.34375 
Q 18.84375 76.609375 39.65625 76.609375 
Q 60.75 76.609375 57.171875 57.8125 
Q 54.734375 44.4375 45.21875 39.546875 
Q 58.015625 35.15625 55.515625 22.125 
Q 51.125 -1.078125 27.484375 -1.03125 
Q 17.140625 -0.984375 13.625 3.375 
z
M 15.921875 15.09375 
Q 19.671875 6.59375 29.296875 6.640625 
Q 43.359375 6.640625 46.34375 21.96875 
Q 49.03125 35.75 26.171875 34.671875 
L 27.78125 42.96875 
Q 45.453125 42.671875 48.53125 58.59375 
Q 50.640625 69.34375 39.203125 69.28125 
Q 26.421875 69.28125 23.484375 54.046875 
z
" id="DejaVuSans-Oblique-946"/>
    <path d="M 24.8125 -5.078125 
Q 18.5625 -15.578125 14.625 -18.1875 
Q 10.6875 -20.796875 4.59375 -20.796875 
L -2.484375 -20.796875 
L -0.984375 -13.28125 
L 4.203125 -13.28125 
Q 7.953125 -13.28125 10.59375 -11.234375 
Q 13.234375 -9.1875 16.5 -3.21875 
L 19.28125 2 
L 7.171875 54.6875 
L 16.703125 54.6875 
L 25.78125 12.796875 
L 50.875 54.6875 
L 60.296875 54.6875 
z
" id="DejaVuSans-Oblique-121"/>
   </defs>
   <g transform="translate(90.48 292.296)scale(0.12 -0.12)">
    <use transform="translate(0 44.810938)scale(0.7)" xlink:href="#DejaVuSans-Oblique-100"/>
    <use transform="translate(44.433594 44.810938)scale(0.7)" xlink:href="#DejaVuSans-Oblique-120"/>
    <use transform="translate(7 -40.623437)scale(0.7)" xlink:href="#DejaVuSans-Oblique-100"/>
    <use transform="translate(51.433594 -40.623437)scale(0.7)" xlink:href="#DejaVuSans-Oblique-116"/>
    <use transform="translate(117.841797 0.01875)" xlink:href="#DejaVuSans-61"/>
    <use transform="translate(221.113281 0.01875)" xlink:href="#DejaVuSans-Oblique-945"/>
    <use transform="translate(287.03125 0.01875)" xlink:href="#DejaVuSans-Oblique-120"/>
    <use transform="translate(365.693359 0.01875)" xlink:href="#DejaVuSans-8722"/>
    <use transform="translate(468.964844 0.01875)" xlink:href="#DejaVuSans-Oblique-946"/>
    <use transform="translate(532.783203 0.01875)" xlink:href="#DejaVuSans-Oblique-120"/>
    <use transform="translate(591.962891 0.01875)" xlink:href="#DejaVuSans-Oblique-121"/>
    <path d="M 0 18.815625 
L 0 25.065625 
L 85.859375 25.065625 
L 85.859375 18.815625 
L 0 18.815625 
z
"/>
   </g>
   <!-- $\frac{dy}{dt}=\delta xy-\gamma y$ -->
   <defs>
    <path d="M 54.25 63.328125 
Q 49.953125 66.75 38.28125 66.75 
Q 25.921875 66.75 24.8125 61.03125 
Q 23.921875 56.546875 36.375 54.203125 
Q 46.140625 52.390625 50.828125 46.921875 
Q 56.5 40.328125 53.859375 26.8125 
Q 51.3125 13.875 43.171875 6.25 
Q 34.96875 -1.421875 23.25 -1.421875 
Q 11.578125 -1.421875 6.34375 6.25 
Q 1.125 13.875 3.765625 27.296875 
Q 5.671875 37.25 13.921875 45.3125 
Q 17.140625 48.4375 21.140625 50.203125 
Q 14.265625 54.046875 15.625 60.9375 
Q 18.21875 74.21875 39.75 74.21875 
Q 50.53125 74.21875 55.71875 70.796875 
z
M 27.390625 47.75 
Q 23.828125 46.34375 20.40625 42.78125 
Q 15.140625 37.25 13.234375 27.296875 
Q 11.28125 17.390625 14.359375 11.8125 
Q 17.484375 6.203125 24.75 6.203125 
Q 31.9375 6.203125 37.203125 11.859375 
Q 42.53125 17.53125 44.34375 26.8125 
Q 46.1875 36.53125 42.671875 41.21875 
Q 38.921875 46.234375 32.859375 46.78125 
Q 29.78125 47.078125 27.390625 47.75 
z
" id="DejaVuSans-Oblique-948"/>
    <path d="M 23.296875 46.09375 
L 28.71875 12.3125 
L 54 54.6875 
L 63.53125 54.6875 
L 30.8125 0 
L 26.765625 -20.796875 
L 17.78125 -20.796875 
L 21.828125 0 
L 15.4375 40.828125 
Q 14.453125 46.96875 9.8125 46.96875 
L 7.421875 46.96875 
L 8.890625 54.6875 
L 12.3125 54.6875 
Q 21.921875 54.6875 23.296875 46.09375 
z
" id="DejaVuSans-Oblique-947"/>
   </defs>
   <g transform="translate(91.08 313.464)scale(0.12 -0.12)">
    <use transform="translate(0 58.810938)scale(0.7)" xlink:href="#DejaVuSans-Oblique-100"/>
    <use transform="translate(44.433594 58.810938)scale(0.7)" xlink:href="#DejaVuSans-Oblique-121"/>
    <use transform="translate(7 -40.185937)scale(0.7)" xlink:href="#DejaVuSans-Oblique-100"/>
    <use transform="translate(51.433594 -40.185937)scale(0.7)" xlink:href="#DejaVuSans-Oblique-116"/>
    <use transform="translate(117.841797 0.45625)" xlink:href="#DejaVuSans-61"/>
    <use transform="translate(221.113281 0.45625)" xlink:href="#DejaVuSans-Oblique-948"/>
    <use transform="translate(282.294922 0.45625)" xlink:href="#DejaVuSans-Oblique-120"/>
    <use transform="translate(341.474609 0.45625)" xlink:href="#DejaVuSans-Oblique-121"/>
    <use transform="translate(420.136719 0.45625)" xlink:href="#DejaVuSans-8722"/>
    <use transform="translate(523.408203 0.45625)" xlink:href="#DejaVuSans-Oblique-947"/>
    <use transform="translate(582.587891 0.45625)" xlink:href="#DejaVuSans-Oblique-121"/>
    <path d="M 0 19.253125 
L 0 25.503125 
L 85.859375 25.503125 
L 85.859375 19.253125 
L 0 19.253125 
z
"/>
   </g>
  </g>
  <g id="text_45">
   <!-- $\alpha=$$2.00$ -->
   <g transform="translate(256.08 296.088188)scale(0.12 -0.12)">
    <use transform="translate(0 0.78125)" xlink:href="#DejaVuSans-Oblique-945"/>
    <use transform="translate(85.400391 0.78125)" xlink:href="#DejaVuSans-61"/>
    <use transform="translate(188.671875 0.78125)" xlink:href="#DejaVuSans-50"/>
    <use transform="translate(252.294922 0.78125)" xlink:href="#DejaVuSans-46"/>
    <use transform="translate(284.082031 0.78125)" xlink:href="#DejaVuSans-48"/>
    <use transform="translate(347.705078 0.78125)" xlink:href="#DejaVuSans-48"/>
   </g>
   <!-- $\gamma=$$1.00$ -->
   <g transform="translate(256.5 309.525562)scale(0.12 -0.12)">
    <use transform="translate(0 0.78125)" xlink:href="#DejaVuSans-Oblique-947"/>
    <use transform="translate(78.662109 0.78125)" xlink:href="#DejaVuSans-61"/>
    <use transform="translate(181.933594 0.78125)" xlink:href="#DejaVuSans-49"/>
    <use transform="translate(245.556641 0.78125)" xlink:href="#DejaVuSans-46"/>
    <use transform="translate(277.34375 0.78125)" xlink:href="#DejaVuSans-48"/>
    <use transform="translate(340.966797 0.78125)" xlink:href="#DejaVuSans-48"/>
   </g>
  </g>
  <g id="text_46">
   <!-- $\beta=$$1.00$ -->
   <g transform="translate(321 296.1735)scale(0.12 -0.12)">
    <use transform="translate(0 0.390625)" xlink:href="#DejaVuSans-Oblique-946"/>
    <use transform="translate(83.300781 0.390625)" xlink:href="#DejaVuSans-61"/>
    <use transform="translate(186.572266 0.390625)" xlink:href="#DejaVuSans-49"/>
    <use transform="translate(250.195312 0.390625)" xlink:href="#DejaVuSans-46"/>
    <use transform="translate(281.982422 0.390625)" xlink:href="#DejaVuSans-48"/>
    <use transform="translate(345.605469 0.390625)" xlink:href="#DejaVuSans-48"/>
   </g>
   <!-- $\delta=$$2.00$ -->
   <g transform="translate(321.18 309.63525)scale(0.12 -0.12)">
    <use transform="translate(0 0.78125)" xlink:href="#DejaVuSans-Oblique-948"/>
    <use transform="translate(80.664062 0.78125)" xlink:href="#DejaVuSans-61"/>
    <use transform="translate(183.935547 0.78125)" xlink:href="#DejaVuSans-50"/>
    <use transform="translate(247.558594 0.78125)" xlink:href="#DejaVuSans-46"/>
    <use transform="translate(279.345703 0.78125)" xlink:href="#DejaVuSans-48"/>
    <use transform="translate(342.96875 0.78125)" xlink:href="#DejaVuSans-48"/>
   </g>
  </g>
  <g id="text_47">
   <!-- $\Delta t=$$0.1$ -->
   <defs>
    <path d="M 34.1875 63.1875 
L 14.15625 8.203125 
L 54.25 8.203125 
z
M 0.78125 0 
L 28.609375 72.90625 
L 39.796875 72.90625 
L 67.578125 0 
z
" id="DejaVuSans-916"/>
   </defs>
   <g transform="translate(19.8 296.112562)scale(0.12 -0.12)">
    <use transform="translate(0 0.78125)" xlink:href="#DejaVuSans-916"/>
    <use transform="translate(68.408203 0.78125)" xlink:href="#DejaVuSans-Oblique-116"/>
    <use transform="translate(127.099609 0.78125)" xlink:href="#DejaVuSans-61"/>
    <use transform="translate(230.371094 0.78125)" xlink:href="#DejaVuSans-48"/>
    <use transform="translate(293.994141 0.78125)" xlink:href="#DejaVuSans-46"/>
    <use transform="translate(325.78125 0.78125)" xlink:href="#DejaVuSans-49"/>
   </g>
   <!-- Method: euler -->
   <defs>
    <path d="M 9.8125 72.90625 
L 24.515625 72.90625 
L 43.109375 23.296875 
L 61.8125 72.90625 
L 76.515625 72.90625 
L 76.515625 0 
L 66.890625 0 
L 66.890625 64.015625 
L 48.09375 14.015625 
L 38.1875 14.015625 
L 19.390625 64.015625 
L 19.390625 0 
L 9.8125 0 
z
" id="DejaVuSans-77"/>
    <path d="M 11.71875 12.40625 
L 22.015625 12.40625 
L 22.015625 0 
L 11.71875 0 
z
M 11.71875 51.703125 
L 22.015625 51.703125 
L 22.015625 39.3125 
L 11.71875 39.3125 
z
" id="DejaVuSans-58"/>
   </defs>
   <g transform="translate(1.448438 309.549937)scale(0.12 -0.12)">
    <use xlink:href="#DejaVuSans-77"/>
    <use x="86.279297" xlink:href="#DejaVuSans-101"/>
    <use x="147.802734" xlink:href="#DejaVuSans-116"/>
    <use x="187.011719" xlink:href="#DejaVuSans-104"/>
    <use x="250.390625" xlink:href="#DejaVuSans-111"/>
    <use x="311.572266" xlink:href="#DejaVuSans-100"/>
    <use x="375.048828" xlink:href="#DejaVuSans-58"/>
    <use x="408.740234" xlink:href="#DejaVuSans-32"/>
    <use x="440.527344" xlink:href="#DejaVuSans-101"/>
    <use x="502.050781" xlink:href="#DejaVuSans-117"/>
    <use x="565.429688" xlink:href="#DejaVuSans-108"/>
    <use x="593.212891" xlink:href="#DejaVuSans-101"/>
    <use x="654.736328" xlink:href="#DejaVuSans-114"/>
   </g>
  </g>
 </g>
 <defs>
  <clipPath id="p5d4f286ceb">
   <rect height="202.48" width="301.24" x="72.84" y="53.96"/>
  </clipPath>
  <clipPath id="p23e5c58521">
   <rect height="202.48" width="301.24" x="72.84" y="323.52"/>
  </clipPath>
 </defs>
</svg>
